<?xml version="1.0" standalone="no"?>
<!DOCTYPE svg PUBLIC "-//W3C//DTD SVG 20010904//EN"
 "http://www.w3.org/TR/2001/REC-SVG-20010904/DTD/svg10.dtd">
<svg version="1.0" xmlns="http://www.w3.org/2000/svg"
 width="1000.000000pt" height="1000.000000pt" viewBox="0 0 1000.000000 1000.000000"
 preserveAspectRatio="xMidYMid meet">
<metadata>
Created by potrace 1.11, written by Peter Selinger 2001-2013
</metadata>
<g transform="translate(0.000000,1000.000000) scale(0.100000,-0.100000)"
fill="#000000" stroke="none">
<path d="M7459 8995 c-3 -2 -56 -9 -119 -15 -145 -13 -298 -36 -420 -62 -52
-11 -115 -24 -140 -29 -25 -5 -83 -21 -130 -35 -47 -15 -121 -37 -165 -51 -82
-25 -93 -29 -230 -83 -240 -95 -483 -220 -695 -359 -269 -175 -556 -417 -708
-596 -42 -49 -79 -92 -82 -95 -3 -3 -75 -86 -160 -185 -85 -99 -184 -214 -222
-256 l-68 -76 -157 -7 c-522 -22 -990 -144 -1450 -377 -546 -277 -1014 -703
-1348 -1226 -98 -153 -114 -210 -81 -286 34 -79 65 -97 281 -152 289 -74 682
-175 793 -202 57 -15 106 -32 109 -39 3 -7 -13 -62 -35 -121 -34 -90 -90 -246
-167 -457 -8 -21 -22 -84 -32 -140 -16 -97 -16 -108 1 -209 19 -122 61 -235
119 -322 44 -66 1098 -1130 1207 -1219 138 -112 297 -168 480 -168 124 0 199
15 349 71 287 108 459 171 469 171 6 0 13 -4 16 -9 3 -4 48 -176 100 -382 195
-769 184 -734 246 -775 45 -30 124 -41 173 -25 20 7 87 45 149 85 393 251 699
543 985 939 96 134 246 401 323 577 23 52 48 109 56 127 27 60 104 299 134
419 60 233 89 426 104 694 l11 204 295 253 c434 372 533 470 740 738 381 491
656 1125 756 1745 42 263 56 451 51 705 -5 242 -10 310 -43 535 -14 95 -23
143 -71 360 -19 91 -49 147 -92 175 -47 31 -191 67 -466 115 -157 28 -440 50
-646 50 -119 0 -218 -2 -220 -5z m612 -401 c79 -8 194 -24 254 -35 61 -11 127
-23 147 -26 21 -3 42 -11 46 -17 13 -17 60 -284 77 -436 20 -179 20 -566 0
-742 -25 -221 -77 -498 -93 -498 -9 0 -1662 1653 -1662 1661 0 7 2 7 145 38
93 19 254 44 385 60 131 15 544 12 701 -5z m-676 -1199 c536 -536 975 -977
975 -980 0 -15 -81 -198 -138 -310 -144 -285 -305 -522 -517 -760 -44 -49 -84
-96 -90 -103 -9 -11 -670 -583 -954 -825 -64 -55 -129 -111 -146 -126 -34 -29
-370 -319 -600 -515 -82 -71 -177 -152 -210 -181 -33 -29 -112 -97 -175 -151
-64 -54 -205 -175 -314 -269 -109 -93 -201 -171 -205 -173 -6 -2 -2021 2006
-2021 2015 0 4 97 117 335 393 83 95 166 192 185 215 19 24 226 265 460 536
233 272 575 670 759 884 433 504 443 516 526 595 249 239 550 449 870 607 107
53 262 121 278 122 4 1 446 -438 982 -974z m-3435 -657 c-1 -7 -13 -27 -28
-44 -63 -72 -457 -529 -572 -664 -122 -143 -403 -470 -446 -520 -12 -14 -70
-81 -129 -150 -59 -69 -110 -128 -114 -132 -3 -4 -94 16 -201 44 -107 27 -220
56 -250 63 -118 28 -416 105 -433 113 -16 7 -8 21 66 117 329 426 754 752
1258 964 106 44 349 126 419 140 25 5 90 18 145 30 55 11 138 27 185 35 47 7
88 14 93 15 4 0 7 -5 7 -11z m-910 -2331 c0 -5 -53 -95 -119 -200 -191 -309
-237 -381 -248 -384 -11 -4 -39 53 -59 117 -19 62 -17 134 5 210 15 53 124
355 170 474 l12 30 119 -119 c66 -66 120 -123 120 -128z m420 -412 c68 -68
122 -127 120 -129 -49 -56 -477 -476 -485 -476 -15 0 -135 124 -135 140 0 12
63 117 238 395 52 83 101 160 109 173 7 12 17 22 21 22 4 0 63 -56 132 -125z
m3276 -52 c-3 -10 -10 -56 -16 -103 -20 -154 -66 -348 -121 -512 -175 -526
-453 -951 -879 -1344 -78 -72 -269 -218 -277 -211 -2 3 -8 20 -13 39 -7 27
-128 504 -198 777 l-19 73 42 39 c24 22 61 54 83 72 43 35 523 448 1047 900
182 157 336 286 343 286 8 1 11 -6 8 -16z m-2743 -481 l127 -127 -98 -61
c-371 -232 -479 -298 -494 -302 -12 -3 -39 16 -83 59 -36 34 -65 68 -65 73 0
11 470 486 480 486 3 0 63 -57 133 -128z m531 -531 c65 -65 114 -121 109 -124
-16 -10 -333 -127 -440 -163 -112 -38 -187 -43 -263 -20 -57 17 -120 47 -120
57 0 4 66 49 148 99 81 50 210 131 287 180 77 49 145 89 150 89 6 1 64 -52
129 -118z"/>
<path d="M5835 7164 c-270 -41 -553 -190 -721 -380 -208 -236 -307 -491 -307
-794 0 -149 19 -269 60 -385 146 -408 466 -688 893 -781 107 -23 349 -23 455
0 205 46 366 122 517 244 209 168 349 395 415 672 26 109 25 384 -1 495 -54
230 -155 417 -314 579 -160 164 -350 271 -582 328 -83 20 -336 33 -415 22z
m260 -388 c129 -11 292 -85 413 -187 180 -151 273 -357 273 -604 0 -105 -4
-133 -31 -225 -50 -169 -127 -284 -260 -392 -158 -128 -348 -187 -558 -174
-332 20 -614 249 -713 576 -19 62 -23 99 -23 215 0 125 3 149 26 225 84 265
280 462 538 541 72 21 198 38 250 33 14 -2 52 -5 85 -8z"/>
<path d="M1925 3252 c-11 -1 -31 -5 -45 -8 -15 -3 -116 -96 -258 -237 -207
-206 -234 -237 -247 -280 -49 -164 122 -303 274 -222 14 7 126 114 248 237
241 243 252 260 239 356 -13 97 -114 170 -211 154z"/>
<path d="M2460 2693 c-14 -3 -45 -20 -70 -38 -25 -19 -338 -328 -697 -687
-681 -682 -693 -695 -693 -778 0 -43 29 -107 61 -137 31 -28 90 -53 126 -53
88 0 70 -16 781 693 371 370 685 690 700 712 20 32 26 52 26 100 0 80 -32 138
-94 170 -30 15 -105 25 -140 18z"/>
<path d="M2996 2125 c-52 -18 -728 -689 -757 -750 -40 -86 -13 -192 61 -241
34 -23 53 -28 103 -28 36 0 74 7 91 16 38 20 723 704 743 742 20 38 19 135 -1
173 -30 60 -106 104 -176 103 -14 -1 -43 -7 -64 -15z"/>
</g>
</svg>
